<svg width="24" height="24" viewBox="0 0 24 24" fill="none" xmlns="http://www.w3.org/2000/svg">
<circle cx="12" cy="12" r="12" fill="#D4DFE2"/>
<path fill-rule="evenodd" clip-rule="evenodd" d="M23.3716 15.8425C23.7791 14.6362 24 13.3439 24 12C24 7.97294 22.0163 4.4092 18.9728 2.23259C18.868 2.6727 18.4722 3 18 3C17.4477 3 17 2.55228 17 2C17 1.70131 17.131 1.43321 17.3386 1.24997C15.7307 0.44992 13.9179 0 12 0C5.37258 0 0 5.37258 0 12C0 18.6274 5.37258 24 12 24C15.579 24 18.792 22.4332 20.9906 19.9481C19.8542 19.7128 19 18.7062 19 17.5C19 16.1193 20.1193 15 21.5 15C22.2448 15 22.9136 15.3257 23.3716 15.8425ZM7.5 10C8.88071 10 10 8.88071 10 7.5C10 6.11929 8.88071 5 7.5 5C6.11929 5 5 6.11929 5 7.5C5 8.88071 6.11929 10 7.5 10ZM12 11C12 11.5523 11.5523 12 11 12C10.4477 12 10 11.5523 10 11C10 10.4477 10.4477 10 11 10C11.5523 10 12 10.4477 12 11ZM6.5 15C7.32843 15 8 14.3284 8 13.5C8 12.6716 7.32843 12 6.5 12C5.67157 12 5 12.6716 5 13.5C5 14.3284 5.67157 15 6.5 15Z" fill="#EBEFF7"/>
<path fill-rule="evenodd" clip-rule="evenodd" d="M18.3694 22.172C21.7515 20.0497 24 16.2874 24 12C24 5.37258 18.6274 0 12 0C9.14061 0 6.51481 1.00009 4.45331 2.66955C5.7225 2.23553 7.08374 2 8.49999 2C15.4035 2 21 7.59644 21 14.5C21 17.3917 20.018 20.0541 18.3694 22.172Z" fill="#464646" fill-opacity="0.35"/>
</svg>
