<svg width="24" height="24" viewBox="0 0 24 24" fill="none" xmlns="http://www.w3.org/2000/svg">
<path d="M15 6H4C3.5 6 3 6.5 3 7V22C3 22.5 3.5 23 4 23H15C15.5 23 16 22.5 16 22V7C16 6.5 15.5 6 15 6Z" stroke-linecap="round" stroke-linejoin="round"/>
<path d="M17.5 20.5C18 20.5 18.5 20 18.5 19.5C18.5 14.6667 18.5 5.5 18.5 4.5C18.5 4 18 3.5 17.5 3.5C17 3.5 6.5 3.5 6.5 3.5C6 3.5 5.5 4 5.5 4.5" stroke-linecap="round" stroke-linejoin="round"/>
<path d="M20 18C20.5 18 21 17.5 21 17C21 12.1667 21 3 21 2C21 1.5 20.5 1 20 1C19.5 1 9 1 9 1C8.5 1 8 1.5 8 2" stroke-linecap="round" stroke-linejoin="round"/>
</svg>
