<?xml version="1.0" ?>
<svg enable-background="new 0 0 12 12" id="Слой_1" version="1.1" viewBox="0 0 12 12" xml:space="preserve" xmlns="http://www.w3.org/2000/svg" xmlns:xlink="http://www.w3.org/1999/xlink">
<g>
<path d="M6,0.125c-2.4121094,0-4.375,1.9628906-4.375,4.375c0,1.3378906,0.6777344,2.2226563,1.2216797,2.9326172   C3.2646484,7.9785156,3.625,8.4492188,3.625,9v1c0,1.0341797,0.8408203,1.875,1.875,1.875h1   c1.0341797,0,1.875-0.8408203,1.875-1.875V9c0-0.5507813,0.3603516-1.0214844,0.7783203-1.5673828   C9.6972656,6.7226563,10.375,5.8378906,10.375,4.5C10.375,2.0878906,8.4121094,0.125,6,0.125z M6.5,11.125h-1   c-0.6201172,0-1.125-0.5048828-1.125-1.125V9.375h3.25V10C7.625,10.6201172,7.1201172,11.125,6.5,11.125z M8.5576172,6.9765625   C8.1747437,7.4777832,7.7975464,7.9995117,7.6783447,8.625H4.3216553C4.2024536,7.9995117,3.8252563,7.4777832,3.4423828,6.9765625   C2.9169922,6.2919922,2.375,5.5839844,2.375,4.5c0-1.9990234,1.6259766-3.625,3.625-3.625S9.625,2.5009766,9.625,4.5   C9.625,5.5839844,9.0830078,6.2919922,8.5576172,6.9765625z"/>
<path d="M6,2.125c-1.3095703,0-2.375,1.0654297-2.375,2.375c0,0.2070313,0.1679688,0.375,0.375,0.375   S4.375,4.7070313,4.375,4.5c0-0.8964844,0.7285156-1.625,1.625-1.625c0.2070313,0,0.375-0.1679688,0.375-0.375   S6.2070313,2.125,6,2.125z"/>
</g>
</svg>