<?xml version="1.0" ?>
<!DOCTYPE svg  PUBLIC '-//W3C//DTD SVG 1.1//EN'  'http://www.w3.org/Graphics/SVG/1.1/DTD/svg11.dtd'>
<svg enable-background="new 0 0 64 64" height="64px" id="Layer_1" version="1.1" viewBox="0 0 64 64" width="64px" xml:space="preserve" xmlns="http://www.w3.org/2000/svg" xmlns:xlink="http://www.w3.org/1999/xlink">
<path d="M33.644,61.558  c-16.436,0-29.808-13.372-29.808-29.808c0-15.744,12.302-28.811,28.006-29.748c0.391-0.028,0.765,0.187,0.947,0.536  c0.182,0.35,0.142,0.774-0.104,1.083c-3.935,4.96-6.015,10.929-6.015,17.261c0,15.333,12.475,27.807,27.808,27.807  c0.564,0,1.127-0.024,1.684-0.056c0.413-0.021,0.764,0.189,0.945,0.538c0.182,0.35,0.141,0.773-0.104,1.083  C51.305,57.438,42.792,61.558,33.644,61.558z M29.769,4.216C16.183,6.11,5.836,17.804,5.836,31.75  c0,15.333,12.475,27.808,27.808,27.808c7.794,0,15.097-3.208,20.354-8.872c-16.215-0.257-29.328-13.528-29.328-29.803  C24.671,14.859,26.426,9.143,29.769,4.216z" fill='none' stroke-miterlimit="10"/></svg>