<?xml version="1.0" standalone="no"?>
<!DOCTYPE svg PUBLIC "-//W3C//DTD SVG 20010904//EN"
 "http://www.w3.org/TR/2001/REC-SVG-20010904/DTD/svg10.dtd">
<svg version="1.0" xmlns="http://www.w3.org/2000/svg"
 width="700.000000pt" height="700.000000pt" viewBox="0 0 700.000000 700.000000"
 preserveAspectRatio="xMidYMid meet">
<metadata>
Created by potrace 1.11, written by Peter Selinger 2001-2013
</metadata>
<g transform="translate(0.000000,700.000000) scale(0.100000,-0.100000)"
fill="#000000" stroke="none">
<path d="M3200 6990 c-120 -12 -179 -20 -280 -36 -1000 -164 -1894 -774 -2419
-1649 -100 -166 -208 -386 -266 -540 -21 -55 -41 -109 -46 -120 -43 -104 -131
-466 -153 -625 -2 -19 -10 -80 -18 -135 -14 -112 -18 -606 -5 -720 4 -38 15
-117 23 -175 152 -1050 782 -1979 1704 -2517 104 -61 286 -153 360 -183 30
-12 74 -31 96 -41 114 -50 491 -163 609 -182 17 -3 71 -12 120 -20 208 -36
304 -42 610 -41 353 1 595 34 917 125 1394 394 2403 1610 2537 3059 11 120 11
497 0 615 -42 456 -163 880 -363 1271 -65 127 -78 150 -125 229 -268 445 -648
839 -1086 1126 -72 48 -225 139 -231 139 -4 0 -23 10 -43 22 -20 13 -38 23
-41 23 -3 1 -37 17 -75 37 -234 120 -637 252 -895 293 -25 4 -54 9 -65 11
-159 33 -681 53 -865 34z"/>
</g>
</svg>
